<?xml version="1.0" encoding="UTF-8" standalone="no"?>
<!-- Created with Inkscape (http://www.inkscape.org/) -->

<svg
   xmlns:dc="http://purl.org/dc/elements/1.1/"
   xmlns:cc="http://creativecommons.org/ns#"
   xmlns:rdf="http://www.w3.org/1999/02/22-rdf-syntax-ns#"
   xmlns:svg="http://www.w3.org/2000/svg"
   xmlns="http://www.w3.org/2000/svg"
   xmlns:sodipodi="http://sodipodi.sourceforge.net/DTD/sodipodi-0.dtd"
   xmlns:inkscape="http://www.inkscape.org/namespaces/inkscape"
   width="1548.8824mm"
   height="605.98688mm"
   viewBox="0 0 1548.8824 605.98688"
   version="1.1"
   id="svg8"
   inkscape:version="0.92.2 (5c3e80d, 2017-08-06)"
   sodipodi:docname="Pochoir_Apito_wip.svg">
  <defs
     id="defs2" />
  <sodipodi:namedview
     id="base"
     pagecolor="#ffffff"
     bordercolor="#666666"
     borderopacity="1.0"
     inkscape:pageopacity="0.0"
     inkscape:pageshadow="2"
     inkscape:zoom="0.16076434"
     inkscape:cx="3788.2086"
     inkscape:cy="117.52039"
     inkscape:document-units="mm"
     inkscape:current-layer="layer1"
     showgrid="false"
     inkscape:window-width="1920"
     inkscape:window-height="1002"
     inkscape:window-x="0"
     inkscape:window-y="24"
     inkscape:window-maximized="1" />
  <metadata
     id="metadata5">
    <rdf:RDF>
      <cc:Work
         rdf:about="">
        <dc:format>image/svg+xml</dc:format>
        <dc:type
           rdf:resource="http://purl.org/dc/dcmitype/StillImage" />
        <dc:title />
      </cc:Work>
    </rdf:RDF>
  </metadata>
  <g
     inkscape:label="Layer 1"
     inkscape:groupmode="layer"
     id="layer1"
     transform="translate(771.48732,334.4533)">
    <path
       style="fill:none;stroke:#000000;stroke-width:0.37689081;stroke-opacity:1"
       d="m -751.32242,54.528163 c 0.0224,1.320853 0.0341,2.699597 0.0341,4.142396 0,1.577684 -0.11007,4.035902 -0.33021,7.374732 -0.22015,3.338829 -0.3483,5.889042 -0.38499,7.650188 l 3.96254,-0.385524 h 0.66043 c 0.36691,0.0367 0.58704,0.128693 0.66043,0.275458 0.11007,0.146764 0.16484,0.513662 0.16484,1.100693 0,3.375527 -0.36689,6.200642 -1.10071,8.475451 -0.73381,2.238136 -1.65105,3.356901 -2.75177,3.356901 h -0.33021 c -0.66043,0.953955 -1.33893,1.797817 -2.03605,2.531639 -0.69712,0.733795 -1.44952,1.394222 -2.25671,1.981279 -0.0367,0.293502 -0.11007,0.770996 -0.22014,1.431422 -0.61562,3.898927 -1.14782,6.883427 -1.60404,9.028902 h 39.30458 c 0.41248,-5.507139 0.88207,-11.770541 0.98289,-13.156799 l -4.23799,0.220134 h -0.49506 c -0.33021,0 -0.55035,-0.092 -0.66042,-0.275431 -0.0734,-0.183463 -0.11007,-0.623729 -0.11007,-1.320853 0,-0.440293 0.34829,-2.421546 1.04541,-5.943838 0.69712,-3.522292 1.21078,-6.897741 1.54099,-10.126504 l 5.06326,-1.375622 0.82579,-4.072625 8.20053,-6.219269 0.33021,-1.21076 5.61361,-2.146141 c -0.14676,1.651079 -0.27543,3.448896 -0.3855,5.393478 -0.11007,1.90791 -0.14676,3.907234 -0.11007,5.998607 0.3669,-0.0367 0.93585,-0.09147 1.70635,-0.164862 1.98129,-0.183436 3.28352,-0.275431 3.90726,-0.275431 3.88919,0 6.80629,0.532262 8.75089,1.596284 1.98128,1.02735 2.97191,2.586408 2.97191,4.677754 0,3.118696 -0.40359,6.604238 -1.21078,10.45673 -0.80719,3.852492 -1.61437,6.457473 -2.42156,7.815024 -0.69712,1.247484 -3.06387,3.614235 -7.09982,7.099829 -1.11649,0.973085 -2.31855,1.985725 -3.58945,3.030295 h 44.26035 c -0.27902,-0.82491 -0.5565,-1.722724 -0.83199,-2.700095 -0.22015,-0.807191 -0.38499,-1.394222 -0.49506,-1.761119 l -5.2834,-0.274929 -0.11007,-6.494674 c 0,-0.256858 0.0181,-0.513662 0.0548,-0.77052 0.0367,-0.07337 0.0553,-0.128137 0.0553,-0.164835 0,-0.366898 1.00871,-1.926484 3.02669,-4.678257 2.01798,-2.788496 4.16458,-5.283385 6.4394,-7.484824 1.94459,-1.834541 4.42141,-3.503665 7.43003,-5.007954 3.04532,-1.541013 5.00796,-2.311506 5.88853,-2.311506 0.11007,0 0.27544,0.146765 0.49558,0.440293 0.0367,0.07337 0.0915,0.146765 0.16485,0.220134 l 1.9265,2.531639 c 0.0734,0.110067 0.14676,0.293502 0.22014,0.55036 0.0734,0.220133 0.11007,0.476964 0.11007,0.770493 0,0.256831 -0.20206,1.357524 -0.60565,3.302106 -1.57219,7.804837 -2.81033,15.749613 -3.71657,23.833688 h 37.97959 c -0.74306,-1.12585 -1.34317,-2.867867 -1.79885,-5.231708 -0.55036,-3.081998 -0.82527,-6.934438 -0.82527,-11.557449 0,-1.210786 0.0367,-2.531613 0.11007,-3.962532 0.11007,-1.430946 0.25683,-3.137271 0.44028,-5.11855 -0.95395,0.3302 -1.76113,0.697098 -2.42156,1.100693 -0.66043,0.366924 -1.26607,0.770493 -1.81642,1.210786 l -2.47634,-1.100719 c -0.0367,-0.843862 -0.0734,-1.834489 -0.11007,-2.971906 -0.11007,-3.448897 -0.20205,-7.191269 -0.27544,-11.227223 l 13.09843,-2.696475 c 0.91366,-1.918679 1.8677,-3.71729 2.85719,-5.408454 h -38.70151 c -3.43706,3.194685 -6.08862,5.620359 -7.90185,7.224369 -1.9079,1.651079 -3.68762,3.13727 -5.33869,4.458123 l -8.14524,-5.173318 5.70508,-6.509174 z m 172.78635,0 c -0.34397,1.433698 -0.64426,2.816225 -0.89607,4.142396 l 3.35742,-0.110093 c 0.33022,0.623755 0.67851,1.137418 1.04542,1.541013 0.3669,0.366898 0.80718,0.679027 1.32084,0.935858 l 0.11008,10.841698 c -0.8072,0.513689 -1.43092,1.11932 -1.87121,1.816444 -0.44028,0.660427 -0.75189,1.522386 -0.93534,2.586408 -1.43093,0.366898 -2.77037,0.660427 -4.01784,0.88056 -1.24748,0.183462 -2.43964,0.293529 -3.57705,0.3302 -1.541,3.485621 -2.75176,7.393331 -3.63233,11.722814 -0.83627,4.290404 -1.25698,8.382185 -1.26452,12.276239 h 4.39611 c 0.51739,-0.38872 1.01649,-0.79173 1.49138,-1.21388 1.65107,-1.467615 3.10006,-3.192037 4.34754,-5.173316 l 1.48621,0.55036 c -0.51366,1.284155 -0.89916,2.54971 -1.156,3.797168 -0.11807,0.669108 -0.20157,1.349478 -0.25631,2.039668 h 31.52469 c -0.006,-0.29191 -0.015,-0.57964 -0.015,-0.88365 0,-3.448924 0.23874,-6.971639 0.71572,-10.567327 0.51367,-3.595661 1.21077,-6.952509 2.09134,-10.071206 -0.51366,-0.47699 -0.95394,-0.972555 -1.32085,-1.486217 -0.33021,-0.55036 -0.49557,-1.027324 -0.49557,-1.43092 0,-0.550359 0.73379,-1.68775 2.20141,-3.412199 1.50431,-1.724448 3.3388,-3.44887 5.50354,-5.173318 1.57769,-1.247484 2.80707,-2.054675 3.68763,-2.421572 0.88059,-0.403596 1.83452,-0.605129 2.86184,-0.605129 3.96259,0 8.10853,1.504289 12.43801,4.512892 4.32948,2.971932 6.49417,5.723678 6.49417,8.255317 0,0.953956 -0.47696,2.659777 -1.43092,5.118047 -0.91726,2.421573 -2.14611,5.063226 -3.6871,7.925091 -1.65108,3.118697 -3.52226,6.164448 -5.61361,9.136381 -0.26001,0.37608 -0.51816,0.74361 -0.77465,1.10381 h 39.05292 c 0.56267,-1.11416 1.2477,-2.456228 2.11098,-4.131014 l 5.93659,-2.261341 v -4.098978 l -4.89117,1.572498 c -0.0367,-0.88056 -0.0734,-1.835018 -0.11006,-2.862342 v -4.292759 c 0,-9.502854 0.3121,-17.922901 0.93586,-25.260987 0.17166,-2.029672 0.36134,-3.896307 0.56636,-5.628614 z m 40.59391,27.477403 c -0.29352,1.284155 -0.51366,2.494914 -0.66042,3.632332 -0.14677,1.137417 -0.22016,2.220013 -0.22016,3.247337 0,1.871212 0.25683,3.247337 0.77052,4.127923 0.51366,0.843889 1.33942,1.265555 2.47684,1.265555 1.50432,0 3.04528,-0.495062 4.62296,-1.485688 1.57771,-1.027351 2.97191,-2.440146 4.18269,-4.23799 -1.43092,-1.320853 -3.06387,-2.513542 -4.89839,-3.577564 -1.79784,-1.064022 -3.88916,-2.054648 -6.27404,-2.971905 z m -163.38021,4.622958 c -0.29352,0 -0.60564,0.0186 -0.93586,0.0553 -0.29352,0 -0.66042,0.0181 -1.10071,0.05477 -0.99064,4.182745 -1.8159,7.833624 -2.47633,10.952321 -0.27644,1.305375 -0.53815,2.559685 -0.7953,3.800785 h 2.98483 c 0.23725,-0.2912 0.42154,-0.52239 0.67231,-0.82888 5.3935,-6.714357 8.08994,-10.640165 8.08994,-11.777582 0,-0.843862 -0.45836,-1.43092 -1.37562,-1.76112 -0.91727,-0.330226 -2.605,-0.495591 -5.06326,-0.495591 z"
       id="rect301-5-6-8-0"
       inkscape:connector-curvature="0" />
    <path
       style="fill:none;stroke:#000000;stroke-width:0.51247734;stroke-opacity:1"
       d="m -759.12346,-44.252661 c 0.0243,1.54649 0.0372,3.155818 0.0372,4.834308 0,1.972125 -0.13772,5.045022 -0.4129,9.218559 -0.27517,4.173564 -0.43576,7.360788 -0.48162,9.562227 l 4.95319,-0.481621 h 0.82527 c 0.45863,0.04585 0.73406,0.160708 0.82579,0.344144 0.13759,0.183462 0.20619,0.641826 0.20619,1.375648 0,4.219389 -0.45837,7.75118 -1.37563,10.5946831 -0.91726,2.7976495 -2.06369,4.1966596 -3.43958,4.1966596 h -0.4129 c -0.82553,1.1924234 -1.67418,2.2468668 -2.54558,3.1641232 -0.8714,0.91728367 -1.81151,1.74304801 -2.8205,2.4768695 -0.0459,0.3668976 -0.13784,0.9629774 -0.27543,1.7885038 -0.58255,3.6894823 -1.10468,6.716448 -1.57303,9.1498478 h 63.39354 c 0.40458,-5.4073165 0.95953,-12.80152043 1.06919,-14.3092205 l -5.29684,0.274928 h -0.6196 c -0.41276,0 -0.68768,-0.114326 -0.82527,-0.343641 -0.0917,-0.2293137 -0.13746,-0.7796734 -0.13746,-1.6510781 0,-0.5503597 0.4355,-3.0271752 1.3069,-7.4300254 0.8714,-4.402852 1.51373,-8.622189 1.9265,-12.658143 l 6.32881,-1.719792 1.03198,-5.091165 10.25053,-7.77367 0.4129,-1.513602 7.01662,-2.68306 c -0.18345,2.063856 -0.34351,4.311491 -0.48111,6.742218 -0.13758,2.384902 -0.18383,4.884076 -0.13797,7.498265 0.45863,-0.04585 1.16956,-0.114458 2.13269,-0.206189 2.4766,-0.229315 4.10478,-0.34417 4.88445,-0.34417 4.86149,0 8.50761,0.665189 10.93835,1.995223 2.47661,1.284181 3.71502,3.233525 3.71502,5.847715 0,3.89837 -0.50461,8.255396 -1.5136,13.0710238 -1.00899,4.8156253 -2.0177,8.07198244 -3.02669,9.7689138 -0.8714,1.5593483 -3.82997,4.5173899 -8.87491,8.8743894 -0.6212,0.541417 -1.26189,1.091963 -1.92133,1.65108 h 66.61557 c -0.12018,-0.401479 -0.24002,-0.813726 -0.35967,-1.238171 -0.27518,-1.0089886 -0.48149,-1.742784 -0.61908,-2.2014129 l -6.60425,-0.34417 -0.13798,-8.11786619 c 0,-0.32101867 0.0234,-0.64219634 0.0692,-0.96324134 0.0459,-0.09173 0.0687,-0.16031067 0.0687,-0.20618967 0,-0.4586287 1.26128,-2.4079718 3.78375,-5.8476847 2.52247,-3.4856192 5.20509,-6.6042362 8.0486,-9.3560352 2.43075,-2.293144 5.52651,-4.379675 9.28729,-6.260068 3.80664,-1.926273 6.26059,-2.889753 7.36131,-2.889753 0.13759,0 0.34391,0.183436 0.61908,0.55036 0.0459,0.09173 0.11447,0.1837 0.20619,0.275431 l 2.40812,3.164655 c 0.0917,0.13761 0.1832,0.366792 0.27492,0.687811 0.0917,0.275193 0.13798,0.596344 0.13798,0.963268 0,0.321019 -0.25257,1.696641 -0.75706,4.127394 -1.82654,9.0674539 -3.29176,18.286671 -4.39921,27.655673 h 60.70532 c -0.45852,-1.201738 -0.8555,-2.6671593 -1.19009,-4.4028524 -0.68795,-3.8524919 -1.03198,-8.6684107 -1.03198,-14.4471714 0,-1.5134694 0.0457,-3.1645212 0.13745,-4.9531832 0.13761,-1.788663 0.32104,-3.92094 0.55036,-6.397546 -1.19245,0.412777 -2.20115,0.871141 -3.02668,1.375648 -0.82555,0.458629 -1.58274,0.963242 -2.27068,1.513602 l -3.09541,-1.376151 c -0.0458,-1.054867 -0.0921,-2.292746 -0.13798,-3.714511 -0.13759,-4.311121 -0.25191,-8.989325 -0.34364,-14.034294 l 16.37315,-3.370845 c 1.07924,-2.26642 2.20128,-4.404201 3.36519,-6.416648 h -63.07678 c -4.10912,3.816403 -7.30862,6.741689 -9.50743,8.6868 -2.38489,2.063829 -4.60914,3.921204 -6.67298,5.572257 l -10.18129,-6.466787 6.83007,-7.79227 z m 259.50199,0 c -0.39545,1.669045 -0.74361,3.282976 -1.03818,4.834308 l 4.19614,-0.137451 c 0.41275,0.779674 0.84875,1.4215 1.30741,1.925981 0.45863,0.458629 1.00896,0.848387 1.65105,1.169432 l 0.13745,13.552673 c -1.00899,0.64209 -1.7885,1.398746 -2.33886,2.270151 -0.55036,0.825527 -0.94012,1.90336 -1.16943,3.233394 -1.78866,0.458628 -3.46311,0.825526 -5.02246,1.100693 -1.55934,0.229314 -3.04979,0.36703 -4.47156,0.412908 -1.92625,4.357 -3.43956,9.2414969 -4.54028,14.6533609 -0.8936,4.5845931 -1.4044,8.9859368 -1.54098,13.2085021 h 7.99071 c 1.7872,-1.695477 3.37587,-3.6437628 4.76353,-5.8477155 l 1.85777,0.6878108 c -0.64206,1.6052007 -1.12382,3.1876472 -1.44486,4.7469957 -0.0242,0.137108 -0.0462,0.275088 -0.0682,0.412909 h 53.6794 c 0.0437,-3.9815298 0.33695,-8.0396032 0.88575,-12.17652176 0.64206,-4.49458054 1.51357,-8.69105514 2.61429,-12.58942524 -0.64209,-0.596212 -1.19242,-1.215681 -1.65105,-1.857745 -0.41278,-0.68797 -0.6196,-1.284049 -0.6196,-1.78853 0,-0.687943 0.91723,-2.109814 2.75177,-4.265375 1.8804,-2.15556 4.17375,-4.311226 6.87967,-6.466787 1.97213,-1.559348 3.50832,-2.568045 4.60902,-3.026701 1.10072,-0.504481 2.29341,-0.757052 3.57756,-0.757052 4.95324,0 10.13553,1.880738 15.54739,5.641525 5.41184,3.714909 8.11784,7.154704 8.11784,10.319253 0,1.19245 -0.59608,3.324727 -1.78853,6.3975441 -1.14657,3.0269642 -2.68277,6.3290414 -4.60901,9.9063653 -1.92416,3.6345018 -4.09062,7.1884117 -6.49314,10.6634496 h 62.94395 c 0.46569,-0.911357 0.98306,-1.919764 1.55392,-3.0272042 l 7.75198,-2.9533321 V 0.88770958 l -6.44456,2.07121112 c -0.0459,-1.1007195 -0.0916,-2.29287902 -0.13748,-3.57706013 V -5.9842034 c 0,-11.8785456 0.38978,-22.4042526 1.16946,-31.5768806 0.2028,-2.397813 0.42452,-4.62579 0.66455,-6.691577 z m 65.35983,34.003085 c -0.3669,1.6052001 -0.64182,3.1190392 -0.82526,4.5408033 -0.18346,1.4217644 -0.27546,2.7744985 -0.27546,4.0586529 0,2.33902148 0.32118,4.0586808 0.96327,5.1593739 0.64206,1.0548673 1.67365,1.5823406 3.09541,1.5823406 1.8804,0 3.80686,-0.6189398 5.77898,-1.8572427 1.97212,-1.2841817 3.71515,-3.05006409 5.22862,-5.2973535 -1.78867,-1.6510781 -3.82998,-3.1415285 -6.12315,-4.4715616 -2.24729,-1.3300334 -4.8613,-2.5684415 -7.84241,-3.7150129 z m -247.83241,5.7789737 c -0.36691,0 -0.75667,0.02286 -1.16944,0.06871 -0.36691,0 -0.82527,0.02289 -1.37563,0.06874 -1.2383,5.22840148 -2.27039,9.7917495 -3.09593,13.6901203 -0.19013,0.897837 -0.36391,1.7408 -0.54674,2.614322 h 4.99815 c 6.13447,-7.6993489 9.23871,-12.26520976 9.23871,-13.6214108 0,-1.0548394 -0.57321,-1.7886351 -1.71979,-2.2014108 -1.14658,-0.4127497 -3.2565,-0.6190717 -6.32933,-0.6190707 z"
       id="rect301-5-6-8"
       inkscape:connector-curvature="0" />
    <path
       style="fill:#ffffff;stroke:#000000;stroke-width:0.64597732;stroke-opacity:1"
       d="m -754.57543,-129.58075 c 0.0245,1.71381 0.0387,3.4834 0.0387,5.3304 0,2.36654 -0.16536,6.05362 -0.49557,11.06186 -0.33022,5.00827 -0.52271,8.83356 -0.57775,11.47527 l 5.94383,-0.57774 h 0.99063 c 0.55036,0.055 0.88057,0.19224 0.99064,0.41238 0.16511,0.22016 0.24753,0.77049 0.24753,1.65108 0,5.06324 -0.55034,9.301168 -1.65106,12.713367 -1.10072,3.357192 -2.47632,5.035894 -4.1274,5.035894 h -0.49557 c -0.99065,1.43092 -2.00892,2.696448 -3.0546,3.797168 -1.04568,1.100719 -2.1735,2.091346 -3.38429,2.971906 -0.055,0.440293 -0.1651,1.156017 -0.33021,2.146644 -0.99064,6.274091 -1.84407,11.034712 -2.55953,14.281811 l -7.2962,4.444709 h 83.46157 c 0.93622,-12.479602 1.67044,-22.292416 1.86139,-24.917876 l -6.35672,0.330226 h -0.74259 c -0.49532,0 -0.82553,-0.137715 -0.99064,-0.412909 -0.11007,-0.275166 -0.16536,-0.935593 -0.16536,-1.981279 0,-0.660426 0.5227,-3.632279 1.56838,-8.915717 1.04568,-5.283418 1.81616,-10.347094 2.31149,-15.190244 l 7.5954,-2.06346 1.23816,-6.10917 12.30054,-9.32863 0.49506,-1.81591 8.42068,-3.21996 c -0.22014,2.47661 -0.41264,5.17356 -0.57774,8.09046 -0.16511,2.86186 -0.2204,5.86137 -0.16537,8.99842 0.55036,-0.055 1.40327,-0.13747 2.55902,-0.24754 2.97193,-0.27517 4.92605,-0.41288 5.86166,-0.41288 5.83379,0 10.20891,0.79811 13.12581,2.39416 2.97193,1.54101 4.45813,3.88011 4.45813,7.01715 0,4.678028 -0.60564,9.906038 -1.81643,15.684771 -1.21079,5.778765 -2.42155,9.686476 -3.63234,11.722815 -1.04568,1.871212 -4.59554,5.421074 -10.64947,10.649479 -3.4557,3.011831 -7.42095,6.259671 -11.86285,9.728094 h 92.40366 c -1.13163,-2.278856 -2.24472,-5.349796 -3.33933,-9.233032 -0.33021,-1.210787 -0.578,-2.091346 -0.7431,-2.641706 l -7.9251,-0.412883 -0.16537,-9.741032 c 0,-0.385233 0.0276,-0.770731 0.0827,-1.155991 0.055,-0.110066 0.0827,-0.192484 0.0827,-0.247517 0,-0.55036 1.51332,-2.889462 4.54029,-7.017147 3.02697,-4.182719 6.24662,-7.92509 9.65885,-11.227202 2.91688,-2.751785 6.6316,-5.255719 11.14452,-7.512189 4.56798,-2.3115 7.51271,-3.4675 8.83359,-3.4675 0.1651,0 0.41235,0.22016 0.74258,0.66043 0.055,0.11007 0.13798,0.22016 0.24805,0.33023 l 2.88922,3.79769 c 0.11007,0.1651 0.22016,0.44003 0.33023,0.82527 0.11006,0.33022 0.16536,0.71572 0.16536,1.15601 0,0.38524 -0.30308,2.036281 -0.90847,4.953166 -2.69349,13.371202 -4.73533,27.015737 -6.12574,40.933403 h 80.28037 c -1.46166,-1.249839 -2.89573,-2.564659 -4.30051,-3.949647 -1.59604,-1.485953 -2.83445,-4.512601 -3.71501,-9.08058 -0.82555,-4.623011 -1.23817,-10.401908 -1.23817,-17.336399 0,-1.816179 0.0548,-3.797432 0.16483,-5.943838 0.16513,-2.146374 0.38526,-4.705599 0.66043,-7.677514 -1.43092,0.495297 -2.64168,1.045654 -3.63233,1.651041 -0.99063,0.550357 -1.89884,1.155984 -2.72436,1.816411 l -3.71452,-1.651041 c -0.055,-1.265814 -0.11033,-2.751995 -0.16536,-4.458112 -0.1651,-5.17337 -0.30282,-10.7869 -0.41291,-16.84083 l 19.64791,-4.04524 c 1.2111,-2.54331 2.46726,-4.95221 3.76721,-7.229 h -75.92819 c -4.68013,4.34282 -8.35573,7.70123 -10.90165,9.95339 -2.86187,2.4766 -5.53067,4.70564 -8.00727,6.68692 l -12.21837,-7.76023 7.78403,-8.88008 z m 311.28436,0 c -0.42868,1.83594 -0.80799,3.61447 -1.1338,5.3304 l 5.03587,-0.16536 c 0.49533,0.93562 1.01804,1.70611 1.5684,2.3115 0.55036,0.55036 1.21076,1.01828 1.98125,1.40354 l 0.16537,16.26309 c -1.21079,0.77049 -2.14662,1.6787 -2.80705,2.72436 -0.66042,0.99065 -1.12784,2.283824 -1.40303,3.879865 -2.14638,0.550357 -4.15528,0.990617 -6.02649,1.320844 -1.87122,0.275167 -3.65998,0.440527 -5.3661,0.495557 -2.3115,5.228391 -4.12789,11.089705 -5.44875,17.58393 -1.26582,6.494224 -1.89859,12.685765 -1.89859,18.57457 v 2.146141 c 0.055,0.55036 0.13745,1.073044 0.24754,1.56837 3.2471,-1.596046 6.10891,-3.494352 8.58552,-5.695764 2.4766,-2.201439 4.65084,-4.788324 6.52208,-7.760256 l 2.2288,0.825262 c -0.77049,1.926246 -1.3485,3.825081 -1.73374,5.696294 -0.33022,1.871213 -0.49506,3.797697 -0.49506,5.778976 0,0.93562 0.0271,1.678464 0.0822,2.228797 0.008,0.07628 0.0197,0.157295 0.0284,0.234633 h 65.11748 c -0.27252,-1.912885 -0.41032,-4.080986 -0.41032,-6.508644 0,-5.173372 0.35788,-10.456704 1.07334,-15.850209 0.77049,-5.393504 1.81641,-10.429557 3.13727,-15.107602 -0.7705,-0.715456 -1.43092,-1.4583 -1.98128,-2.228787 -0.49533,-0.825544 -0.74311,-1.540741 -0.74311,-2.146128 0,-0.825524 1.10069,-2.531835 3.30213,-5.118529 2.25647,-2.58667 5.00819,-5.17356 8.25532,-7.76023 2.36654,-1.87124 4.21005,-3.082 5.53093,-3.63236 1.32085,-0.60539 2.75227,-0.90794 4.29326,-0.90794 5.94386,0 12.16253,2.25668 18.65675,6.7696 6.49422,4.45791 9.74153,8.585241 9.74151,12.38268 0,1.430941 -0.7157,3.990169 -2.14662,7.677561 -1.37591,3.632359 -3.21942,7.594865 -5.53093,11.88765 -2.4766,4.678045 -5.28365,9.246182 -8.42068,13.704067 -1.7421,2.519839 -3.42924,4.7938 -5.06585,6.838871 h 77.44437 c 0.12752,-0.320781 0.27487,-0.671433 0.44751,-1.059895 0.71549,-1.541012 2.44893,-4.980807 5.20073,-10.319279 l 9.16998,-3.49332 v -6.132433 l -7.60108,2.443268 c -0.055,-1.320879 -0.11033,-2.751772 -0.16536,-4.292758 v -6.4389 c 0,-14.254234 0.46791,-26.885062 1.40353,-37.892202 0.22797,-2.69558 0.47591,-5.21333 0.74311,-7.55923 z m 78.54405,40.332882 c -0.4403,1.926246 -0.77052,3.742664 -0.99066,5.448776 -0.22013,1.706113 -0.3302,3.32949 -0.3302,4.870503 0,2.806806 0.3855,4.870477 1.15599,6.191356 0.7705,1.265819 2.0084,1.8991 3.71452,1.8991 2.25644,0 4.56842,-0.743347 6.93496,-2.229327 2.36654,-1.540986 4.45786,-3.659452 6.27404,-6.356191 -2.1464,-1.981306 -4.59557,-3.770048 -7.34735,-5.366094 -2.69676,-1.596019 -5.83398,-3.082237 -9.4113,-4.458123 z m -297.39891,6.934465 c -0.44029,0 -0.9077,0.02765 -1.40302,0.08268 -0.44029,0 -0.99063,0.02765 -1.65106,0.08268 -1.48597,6.274091 -2.72438,11.749908 -3.71502,16.427926 -0.81068,3.82823 -1.55195,7.424447 -2.25206,10.884112 h 1.35547 c 1.441,-1.81565 3.15555,-3.940202 5.18935,-6.425962 8.09026,-10.07155 12.13518,-15.960513 12.13518,-17.666626 0,-1.265819 -0.68806,-2.146379 -2.06396,-2.641706 -1.37589,-0.495326 -3.90749,-0.743108 -7.59488,-0.743108 z"
       id="rect301-5-6"
       inkscape:connector-curvature="0" />
    <path
       style="fill:none;stroke:#000000;stroke-width:0.75384378;stroke-opacity:1"
       d="m -733.67746,-224.30112 c 0.0114,1.29737 0.0186,2.6178 0.0186,3.97701 0,2.76097 -0.1925,7.06271 -0.57775,12.90567 -0.38525,5.84298 -0.61016,10.30529 -0.67437,13.38731 l 6.93446,-0.67387 h 1.156 c 0.64208,0.0642 1.02707,0.22479 1.15548,0.48162 0.19263,0.25684 0.28887,0.89866 0.28887,1.92599 0,5.90716 -0.64181,10.85125 -1.92598,14.83217 -1.28417,3.9167 -2.88947,5.8751 -4.81572,5.8751 h -0.57774 c -1.15576,1.66941 -2.34365,3.14605 -3.56361,4.43021 -1.21996,1.28418 -2.53601,2.44014 -3.9486,3.46749 -0.0642,0.51366 -0.19288,1.34848 -0.3855,2.50423 -1.15576,7.31978 -2.15116,12.87375 -2.98587,16.66203 l -12.37185,7.53703 h 101.05584 c 1.25664,-16.74268 2.10636,-28.11206 2.34715,-31.4229 l -7.41609,0.3855 h -0.86661 c -0.57788,0 -0.96286,-0.16058 -1.15549,-0.48162 -0.12841,-0.32105 -0.19275,-1.09151 -0.19275,-2.31148 0,-0.77049 0.6099,-4.23794 1.82986,-10.40196 1.21996,-6.164 2.1186,-12.07106 2.69648,-17.7214 l 8.86096,-2.4076 1.44487,-7.12721 14.35054,-10.88357 0.57775,-2.11874 7.37732,-2.82101 z m 111.00408,0 c -0.22366,2.63289 -0.42302,5.4595 -0.59531,8.50335 -0.19263,3.33884 -0.25697,6.83819 -0.19276,10.49806 0.64209,-0.0642 1.63749,-0.16044 2.98587,-0.28887 3.46725,-0.32104 5.74628,-0.48162 6.83782,-0.48162 6.80609,0 11.91075,0.93107 15.31379,2.79313 3.46726,1.79781 5.20124,4.52667 5.20124,8.18658 0,5.45769 -0.70667,11.55776 -2.11925,18.29964 -1.41259,6.7419 -2.82488,11.30046 -4.23747,13.67618 -1.21996,2.18307 -5.36164,6.32476 -12.42456,12.42457 -4.80282,4.18594 -10.44239,8.75908 -16.87804,13.70097 h 112.16627 c -1.77834,-2.71333 -3.51872,-7.08647 -5.22036,-13.12323 -0.38523,-1.41261 -0.67397,-2.43991 -0.86661,-3.082 l -9.24595,-0.48162 -0.19275,-11.36467 c 0,-0.44948 0.0324,-0.8993 0.0966,-1.34877 0.0642,-0.1284 0.0961,-0.22466 0.0961,-0.28887 0,-0.64207 1.76591,-3.37095 5.29736,-8.18658 3.53147,-4.87984 7.28766,-9.24592 11.26858,-13.09841 3.40304,-3.21043 7.73668,-6.1318 13.00178,-8.76432 5.32929,-2.69677 8.76483,-4.04524 10.30584,-4.04524 0.19261,0 0.48135,0.25683 0.86659,0.77049 0.0642,0.12843 0.16047,0.25709 0.28887,0.3855 l 3.37087,4.43023 c 0.1284,0.19262 0.2571,0.5138 0.3855,0.96324 0.12843,0.38526 0.19275,0.83458 0.19275,1.34824 0,0.44945 -0.35306,2.3754 -1.05937,5.77845 -3.29387,16.35178 -5.75019,33.05532 -7.3737,50.10756 h 96.7481 c -2.70616,-2.12961 -5.33262,-4.44918 -7.8786,-6.95929 -1.86204,-1.73362 -3.30677,-5.26489 -4.33409,-10.59418 -0.96314,-5.3935 -1.44436,-12.13538 -1.44436,-20.22562 0,-2.11889 0.0643,-4.43034 0.19275,-6.93446 0.19261,-2.50415 0.44945,-5.48984 0.77049,-8.95708 -1.66941,0.57785 -3.08224,1.21968 -4.23799,1.92599 -1.15573,0.64206 -2.21496,1.34821 -3.17809,2.11873 l -4.33409,-1.92599 c -0.0642,-1.47679 -0.12856,-3.21026 -0.19275,-5.20072 -0.19264,-6.0356 -0.35322,-12.58496 -0.48165,-19.6479 l 22.92266,-4.7196 c 1.02197,-2.14619 2.07189,-4.20836 3.14811,-6.19187 h -89.75317 c -4.33327,4.00466 -7.77251,7.13359 -10.30118,9.37048 -3.33883,2.88938 -6.45322,5.48957 -9.3426,7.80107 l -14.25443,-9.05319 7.11637,-8.11836 z m 251.62598,0 c -0.29638,1.35468 -0.56782,2.68101 -0.81391,3.97701 l 5.8751,-0.19275 c 0.57788,1.09154 1.18777,1.99018 1.82986,2.69648 0.64209,0.64208 1.41258,1.18816 2.31148,1.63762 l 0.19277,18.97351 c -1.41258,0.89892 -2.50425,1.95815 -3.27474,3.17812 -0.7705,1.15575 -1.3166,2.6648 -1.63762,4.52684 -2.50415,0.64209 -4.84751,1.15575 -7.03058,1.54101 -2.18308,0.32102 -4.26964,0.51353 -6.2601,0.57774 -2.69674,6.09979 -4.81571,12.93792 -6.35672,20.5145 -1.47677,7.57658 -2.21536,14.80021 -2.21536,21.67051 v 2.50426 c 0.0642,0.64206 0.16045,1.25198 0.28888,1.82985 3.7883,-1.86205 7.12705,-4.07725 10.01643,-6.64559 2.88939,-2.56834 5.42576,-5.58594 7.60884,-9.05319 l 2.60035,0.96324 c -0.8989,2.24729 -1.57313,4.46198 -2.02261,6.64506 -0.38523,2.18311 -0.57774,4.43074 -0.57774,6.74225 0,1.09153 0.0319,1.95826 0.0961,2.60035 0.0642,0.64209 0.16097,1.31633 0.2894,2.0226 -0.12443,0.20596 -0.2514,0.40207 -0.37724,0.60257 h 76.51057 c -0.59674,-2.75297 -0.89763,-6.06499 -0.89763,-9.94513 0,-6.0356 0.41741,-12.19949 1.25212,-18.49192 0.89892,-6.2924 2.11873,-12.16755 3.65974,-17.62527 -0.89892,-0.83471 -1.66942,-1.70143 -2.31151,-2.60035 -0.57785,-0.96314 -0.86659,-1.79795 -0.86659,-2.50426 0,-0.96311 1.28413,-2.95341 3.85247,-5.97119 2.63255,-3.01781 5.84263,-6.03541 9.63094,-9.0532 2.76095,-2.18307 4.91236,-3.5959 6.45334,-4.23799 1.54102,-0.70629 3.21014,-1.05936 5.00798,-1.05936 6.93449,0 14.19003,2.63263 21.76661,7.8977 7.57661,5.20089 11.36521,10.01628 11.36521,14.44668 0,1.66941 -0.83482,4.6551 -2.50423,8.95707 -1.60523,4.23775 -3.75611,8.86066 -6.45285,13.86893 -2.88938,5.45769 -6.16434,10.78727 -9.82421,15.98816 -2.72545,3.94219 -5.33932,7.38397 -7.84344,10.33013 h 91.65849 c -0.002,-0.0398 -0.007,-0.083 -0.007,-0.12094 0,-0.57788 0.38552,-1.73385 1.15602,-3.46747 0.8347,-1.79785 2.85691,-5.81086 6.06732,-12.03908 l 9.5958,-3.65558 v -7.21972 l -7.76595,2.49598 c -0.0642,-1.54102 -0.128,-3.21014 -0.19222,-5.00796 v -7.51221 c 0,-16.62998 0.54557,-31.36595 1.63711,-44.20764 0.19482,-2.30356 0.40281,-4.49269 0.62217,-6.57737 z m 92.14321,44.81329 c -0.51366,2.24729 -0.89866,4.36626 -1.15549,6.35672 -0.25683,1.99046 -0.3855,3.88448 -0.3855,5.68232 0,3.27465 0.44985,5.68233 1.34874,7.22334 0.89893,1.4768 2.34313,2.21536 4.33359,2.21536 2.63255,0 5.3295,-0.86673 8.09048,-2.60035 2.76095,-1.79782 5.20107,-4.26988 7.31996,-7.41609 -2.50412,-2.31151 -5.36167,-4.39804 -8.5721,-6.26007 -3.14619,-1.86206 -6.80614,-3.59603 -10.97968,-5.20123 z m -346.96486,8.09046 c -0.51367,0 -1.05975,0.0319 -1.63763,0.0961 -0.51367,0 -1.15548,0.0324 -1.92598,0.0966 -1.73363,7.31975 -3.17835,13.70804 -4.3341,19.16576 -1.12783,5.32585 -2.16084,10.33531 -3.10524,15.04974 h 0.20929 c 1.96545,-2.5263 4.58679,-5.79425 7.90391,-9.84851 9.43864,-11.75014 14.15831,-18.62069 14.15831,-20.61115 0,-1.47679 -0.80291,-2.50409 -2.40812,-3.08197 -1.60521,-0.57788 -4.55848,-0.86661 -8.86044,-0.86661 z"
       id="rect301-5"
       inkscape:connector-curvature="0" />
    <path
       style="fill:none;stroke:#000000;stroke-width:0.86024362;stroke-opacity:1"
       d="m -748.21146,-334.02318 c 0.019,1.78977 0.033,3.61223 0.033,5.50716 0,3.15538 -0.2201,8.07233 -0.6604,14.75 -0.4403,6.67767 -0.6971,11.77755 -0.7705,15.29984 l 7.9256,-0.77049 h 1.3209 c 0.7338,0.0734 1.1741,0.25683 1.3208,0.55035 0.2202,0.29353 0.3302,1.02732 0.3302,2.20142 0,6.75105 -0.7338,12.40128 -2.2014,16.9509 -1.4676,4.47624 -3.3026,6.71432 -5.504,6.71432 h -0.6605 c -1.3208,1.90791 -2.6783,3.59564 -4.0726,5.06325 -1.3942,1.46763 -2.8985,2.78846 -4.5129,3.96256 -0.073,0.58704 -0.2201,1.54098 -0.4403,2.86183 -1.3208,8.36544 -2.4582,14.71329 -3.4122,19.04277 l -4.9232,2.9993 v 6.73137 h 106.1925 c 1.518,-20.22161 2.4825,-33.12728 2.7662,-37.02874 l -8.4754,0.44028 h -0.9907 c -0.6604,0 -1.1007,-0.18345 -1.3208,-0.55035 -0.1468,-0.36691 -0.2201,-1.24746 -0.2201,-2.6417 0,-0.88058 0.6971,-4.84307 2.0913,-11.88765 1.3942,-7.04458 2.4216,-13.7955 3.082,-20.25303 l 10.127,-2.75177 1.6511,-8.14524 16.4005,-12.43851 0.6605,-2.42156 10.9486,-4.18631 z m 126.9545,0 c -0.2896,3.27354 -0.5438,6.83269 -0.7617,10.681 -0.2201,3.81582 -0.2935,7.815 -0.2201,11.99772 0.7338,-0.0734 1.8712,-0.18345 3.4122,-0.33021 3.9626,-0.36691 6.5675,-0.55036 7.815,-0.55036 7.7784,0 13.6121,1.06401 17.5013,3.19205 3.9626,2.05467 5.9438,5.1733 5.9438,9.35602 0,6.23739 -0.8072,13.20845 -2.4216,20.91346 -1.6143,7.705 -3.2287,12.91495 -4.8431,15.63005 -1.3942,2.49495 -6.1272,7.22845 -14.1991,14.19965 -5.8506,5.09917 -12.7732,10.69449 -20.744,16.7752 h 130.4422 c -2.3105,-2.9453 -4.5649,-8.31542 -6.7634,-16.11478 -0.4403,-1.61438 -0.7705,-2.78897 -0.9906,-3.52278 l -10.5668,-0.55035 -0.2202,-12.98836 c 0,-0.51366 0.037,-1.02732 0.1101,-1.54099 0.073,-0.14676 0.1101,-0.25683 0.1101,-0.33021 0,-0.73381 2.0179,-3.85244 6.0539,-9.35602 4.0359,-5.57696 8.3286,-10.56676 12.8782,-14.96963 3.8892,-3.66905 8.8429,-7.00782 14.8601,-10.01644 6.0906,-3.082 10.0165,-4.62297 11.7776,-4.62297 0.2201,0 0.5503,0.29351 0.9906,0.88056 0.073,0.14677 0.1835,0.29353 0.3302,0.44029 l 3.8525,5.06325 c 0.1468,0.22015 0.2936,0.58704 0.4403,1.10071 0.1467,0.44029 0.2201,0.95395 0.2201,1.54099 0,0.51367 -0.4035,2.71506 -1.2107,6.60425 -3.8364,19.04495 -6.6807,38.5061 -8.5344,58.38248 h 112.12493 c -3.60609,-2.73388 -7.09043,-5.75591 -10.45213,-9.07025 -2.128,-1.98128 -3.779,-6.01767 -4.9531,-12.1083 -1.1008,-6.16401 -1.6511,-13.86886 -1.6511,-23.11487 0,-2.42157 0.073,-5.06324 0.2201,-7.9251 0.2202,-2.86186 0.5137,-6.274 0.8806,-10.23658 -1.9079,0.66043 -3.5222,1.39423 -4.8431,2.20142 -1.3209,0.73381 -2.5316,1.54098 -3.6323,2.42156 l -4.9532,-2.20142 c -0.073,-1.68776 -0.1468,-3.66901 -0.2202,-5.94383 -0.2201,-6.89781 -0.4036,-14.38253 -0.5503,-22.45444 l 26.19685,-5.39347 c 1.33408,-2.80158 2.70936,-5.48026 4.1243,-8.0393 h -102.06405 c -5.4211,5.01799 -9.7307,8.94757 -12.8101,11.67164 -3.8158,3.30215 -7.3747,6.27402 -10.6769,8.91573 l -16.291,-10.34665 8.9762,-10.24072 z m 287.70861,0 c -0.42246,1.88259 -0.80878,3.72199 -1.14774,5.50716 l 6.71431,-0.22014 c 0.66042,1.24747 1.35755,2.2753 2.09134,3.0825 0.73381,0.73381 1.61436,1.35753 2.64171,1.8712 l 0.22013,21.68395 c -1.61438,1.02733 -2.86184,2.23809 -3.74241,3.63233 -0.88058,1.32086 -1.50428,3.04528 -1.87121,5.17333 -2.86186,0.73381 -5.54021,1.32085 -8.03515,1.76113 -2.49498,0.36691 -4.8798,0.58705 -7.15461,0.66043 -3.08202,6.9712 -5.50353,14.78612 -7.26468,23.44508 -1.68776,8.65896 -2.53161,16.91468 -2.53161,24.76645 v 2.86184 c 0.0734,0.73381 0.18344,1.43091 0.33019,2.09134 4.32948,-2.12805 8.14522,-4.65964 11.44736,-7.59489 3.30216,-2.93524 6.20065,-6.38459 8.69561,-10.34717 l 2.9719,1.10071 c -1.02731,2.56834 -1.79781,5.10045 -2.31148,7.5954 -0.44029,2.49496 -0.66042,5.06324 -0.66042,7.70496 0,1.24748 0.0367,2.2381 0.11006,2.97191 0.0734,0.73381 0.18347,1.5043 0.3302,2.31149 -0.37861,0.62669 -0.76522,1.22302 -1.15546,1.80557 h 88.42923 c -0.85765,-3.35278 -1.28985,-7.50969 -1.28985,-12.48244 0,-6.89782 0.47698,-13.94277 1.43092,-21.13411 1.02733,-7.19134 2.42156,-13.90557 4.1827,-20.14295 -1.02735,-0.95396 -1.90791,-1.94458 -2.64171,-2.97192 -0.66043,-1.10071 -0.99065,-2.05465 -0.99065,-2.86184 0,-1.10071 1.46759,-3.37548 4.40285,-6.82439 3.0086,-3.44891 6.67811,-6.89775 11.00759,-10.34665 3.15537,-2.49496 5.6136,-4.10931 7.37473,-4.84312 1.76116,-0.80719 3.66904,-1.21078 5.72368,-1.21078 7.92517,0 16.21705,3.00856 24.87602,9.02581 8.65897,5.94386 12.98834,11.44733 12.98834,16.51062 0,1.9079 -0.95393,5.32005 -2.86184,10.23658 -1.83451,4.84315 -4.29273,10.12648 -7.37473,15.8502 -3.30216,6.23739 -7.0445,12.3284 -11.22722,18.27227 -3.46797,5.01614 -6.77733,9.31765 -9.93169,12.92272 h 105.92168 c -0.13796,-0.48652 -0.20979,-0.90666 -0.20979,-1.25522 0,-0.66043 0.44026,-1.98126 1.32085,-3.96255 0.95395,-2.05467 3.265412,-6.6414 6.934442,-13.75936 l 11.34454,-4.3217 v -8.22896 l -9.2532,2.9745 c -0.0734,-1.76115 -0.14673,-3.66902 -0.22013,-5.72368 v -8.58553 c 0,-19.00568 0.62373,-35.84629 1.87121,-50.52249 0.25294,-2.99069 0.52476,-5.81171 0.81391,-8.47959 z m 105.08969,52.17769 c -0.58706,2.56834 -1.02732,4.98986 -1.32085,7.26468 -0.29353,2.27481 -0.44027,4.4395 -0.44027,6.49417 0,3.74244 0.51364,6.49417 1.54098,8.25531 1.02733,1.68777 2.67838,2.53163 4.95318,2.53163 3.00861,0 6.09055,-0.99062 9.24595,-2.97191 3.15539,-2.05467 5.94381,-4.87978 8.36538,-8.47545 -2.86186,-2.64172 -6.12725,-5.02655 -9.7963,-7.1546 -3.59565,-2.12805 -7.77829,-4.1093 -12.54807,-5.94383 z m -396.5319,9.24595 c -0.587,0 -1.2107,0.0367 -1.8712,0.11007 -0.587,0 -1.3208,0.0367 -2.2014,0.11007 -1.9813,8.36544 -3.6323,15.6667 -4.9532,21.90409 -1.3208,6.23739 -2.5316,12.10827 -3.6323,17.61185 2.2748,-2.93525 5.3934,-6.82436 9.356,-11.66751 10.787,-13.42873 16.1804,-21.28085 16.1804,-23.55567 0,-1.68776 -0.9172,-2.86183 -2.7518,-3.52226 -1.8345,-0.66043 -5.2099,-0.99064 -10.1265,-0.99064 z"
       id="rect301"
       inkscape:connector-curvature="0" />
    <flowRoot
       xml:space="preserve"
       id="flowRoot127"
       style="font-style:normal;font-weight:normal;font-size:40px;line-height:1.25;font-family:sans-serif;letter-spacing:0px;word-spacing:0px;fill:#000000;fill-opacity:1;stroke:none"
       transform="translate(-623.5406,-3.4097522e-5)"><flowRegion
         id="flowRegion129"><rect
           id="rect131"
           width="2745"
           height="3630"
           x="-380"
           y="-160.70996" /></flowRegion><flowPara
         id="flowPara133" /></flowRoot>    <text
       xml:space="preserve"
       style="font-style:italic;font-variant:normal;font-weight:normal;font-stretch:normal;font-size:169.06990051px;line-height:1.25;font-family:'Staccato555 BT';-inkscape-font-specification:'Staccato555 BT Italic';font-variant-ligatures:normal;font-variant-caps:normal;font-variant-numeric:normal;font-feature-settings:normal;text-align:start;letter-spacing:47.39930344px;word-spacing:0px;writing-mode:lr-tb;text-anchor:start;fill:#000000;fill-opacity:1;stroke:none;stroke-width:5.36728621"
       x="-340.60239"
       y="136.59563"
       id="text12-8"><tspan
         sodipodi:role="line"
         id="tspan10-9"
         x="-340.60239"
         y="136.59563"
         style="font-style:italic;font-variant:normal;font-weight:normal;font-stretch:normal;font-size:169.06990051px;font-family:'Staccato555 BT';-inkscape-font-specification:'Staccato555 BT Italic';font-variant-ligatures:normal;font-variant-caps:normal;font-variant-numeric:normal;font-feature-settings:normal;text-align:start;letter-spacing:47.39930344px;writing-mode:lr-tb;text-anchor:start;stroke-width:5.36728621">Apito!</tspan></text>
    <text
       xml:space="preserve"
       style="font-style:italic;font-variant:normal;font-weight:normal;font-stretch:normal;font-size:140.8915863px;line-height:1.25;font-family:'Staccato555 BT';-inkscape-font-specification:'Staccato555 BT Italic';font-variant-ligatures:normal;font-variant-caps:normal;font-variant-numeric:normal;font-feature-settings:normal;text-align:start;letter-spacing:39.49941635px;word-spacing:0px;writing-mode:lr-tb;text-anchor:start;fill:#000000;fill-opacity:1;stroke:none;stroke-width:3.72728252"
       x="-729.54395"
       y="240.23198"
       id="text12-9-4"><tspan
         sodipodi:role="line"
         id="tspan10-7-6"
         x="-729.54395"
         y="240.23198"
         style="font-style:italic;font-variant:normal;font-weight:normal;font-stretch:normal;font-size:140.8915863px;font-family:'Staccato555 BT';-inkscape-font-specification:'Staccato555 BT Italic';font-variant-ligatures:normal;font-variant-caps:normal;font-variant-numeric:normal;font-feature-settings:normal;text-align:start;letter-spacing:39.49941635px;writing-mode:lr-tb;text-anchor:start;stroke-width:3.72728252">Apito!</tspan></text>
    <text
       xml:space="preserve"
       style="font-style:italic;font-variant:normal;font-weight:normal;font-stretch:normal;font-size:112.71326447px;line-height:1.25;font-family:'Staccato555 BT';-inkscape-font-specification:'Staccato555 BT Italic';font-variant-ligatures:normal;font-variant-caps:normal;font-variant-numeric:normal;font-feature-settings:normal;text-align:start;letter-spacing:19.97112274px;word-spacing:0px;writing-mode:lr-tb;text-anchor:start;fill:#000000;fill-opacity:1;stroke:none;stroke-width:2.38546133"
       x="385.7608"
       y="108.20808"
       id="text12-9-3-5"><tspan
         sodipodi:role="line"
         id="tspan10-7-9-9"
         x="385.7608"
         y="108.20808"
         style="font-style:italic;font-variant:normal;font-weight:normal;font-stretch:normal;font-size:112.71326447px;font-family:'Staccato555 BT';-inkscape-font-specification:'Staccato555 BT Italic';font-variant-ligatures:normal;font-variant-caps:normal;font-variant-numeric:normal;font-feature-settings:normal;text-align:start;letter-spacing:19.97112274px;writing-mode:lr-tb;text-anchor:start;stroke-width:2.38546133">Apito!</tspan></text>
    <text
       xml:space="preserve"
       style="font-style:italic;font-variant:normal;font-weight:normal;font-stretch:normal;font-size:197.24821472px;line-height:1.25;font-family:'Staccato555 BT';-inkscape-font-specification:'Staccato555 BT Italic';font-variant-ligatures:normal;font-variant-caps:normal;font-variant-numeric:normal;font-feature-settings:normal;text-align:start;letter-spacing:55.29918289px;word-spacing:0px;writing-mode:lr-tb;text-anchor:start;fill:#000000;fill-opacity:1;stroke:none;stroke-width:7.30547333"
       x="-91.552444"
       y="-18.373293"
       id="text12-2-0"><tspan
         sodipodi:role="line"
         id="tspan10-5-9"
         x="-91.552444"
         y="-18.373293"
         style="font-style:italic;font-variant:normal;font-weight:normal;font-stretch:normal;font-size:197.24821472px;font-family:'Staccato555 BT';-inkscape-font-specification:'Staccato555 BT Italic';font-variant-ligatures:normal;font-variant-caps:normal;font-variant-numeric:normal;font-feature-settings:normal;text-align:start;letter-spacing:55.29918289px;writing-mode:lr-tb;text-anchor:start;stroke-width:7.30547333">Apito!</tspan></text>
    <text
       xml:space="preserve"
       style="font-style:italic;font-variant:normal;font-weight:normal;font-stretch:normal;font-size:225.42652893px;line-height:1.25;font-family:'Staccato555 BT';-inkscape-font-specification:'Staccato555 BT Italic';font-variant-ligatures:normal;font-variant-caps:normal;font-variant-numeric:normal;font-feature-settings:normal;text-align:start;letter-spacing:63.19906616px;word-spacing:0px;writing-mode:lr-tb;text-anchor:start;fill:#000000;fill-opacity:1;stroke:none;stroke-width:9.54184341"
       x="-22.034454"
       y="-181.79002"
       id="text12-2-9-1"><tspan
         sodipodi:role="line"
         id="tspan10-5-3-2"
         x="-22.034454"
         y="-181.79002"
         style="font-style:italic;font-variant:normal;font-weight:normal;font-stretch:normal;font-size:225.42652893px;font-family:'Staccato555 BT';-inkscape-font-specification:'Staccato555 BT Italic';font-variant-ligatures:normal;font-variant-caps:normal;font-variant-numeric:normal;font-feature-settings:normal;text-align:start;letter-spacing:63.19906616px;writing-mode:lr-tb;text-anchor:start;stroke-width:9.54184341">Apito!</tspan></text>
    <flowRoot
       xml:space="preserve"
       id="flowRoot127-3"
       style="font-style:italic;font-variant:normal;font-weight:normal;font-stretch:normal;font-size:40px;line-height:1.25;font-family:'Staccato555 BT';-inkscape-font-specification:'Staccato555 BT Italic';letter-spacing:0px;word-spacing:0px;fill:#000000;fill-opacity:1;stroke:none"
       transform="translate(276.4594,-3.4097522e-5)"><flowRegion
         id="flowRegion129-0"
         style="font-style:italic;font-variant:normal;font-weight:normal;font-stretch:normal;font-family:'Staccato555 BT';-inkscape-font-specification:'Staccato555 BT Italic'"><rect
           id="rect131-7"
           width="2745"
           height="3630"
           x="-380"
           y="-160.70996"
           style="font-style:italic;font-variant:normal;font-weight:normal;font-stretch:normal;font-family:'Staccato555 BT';-inkscape-font-specification:'Staccato555 BT Italic'" /></flowRegion><flowPara
         id="flowPara133-2" /></flowRoot>  </g>
</svg>
